<svg width="218" height="160" viewBox="0 0 218 160" fill="none" xmlns="http://www.w3.org/2000/svg">
<g opacity="0.2">
<path fill-rule="evenodd" clip-rule="evenodd" d="M0.5 88.347C0.5 106.772 7.24953 123.562 18.3563 136.252C31.0983 150.814 49.5755 159.969 70.1715 160C79.1728 160.013 87.7796 158.272 95.6854 155.095C99.7731 153.451 104.348 153.64 108.307 155.587C112.951 157.868 118.152 159.147 123.643 159.147C125.911 159.147 128.132 158.928 130.281 158.51C136.415 157.323 141.996 154.515 146.58 150.537C149.46 148.036 153.15 146.779 156.921 146.783H156.985C169.444 146.783 181.018 142.902 190.626 136.252C199.217 130.314 206.231 122.165 210.905 112.596C214.98 104.258 217.274 94.8391 217.274 84.8701C217.274 50.6788 190.279 22.9571 156.985 22.9571C153.59 22.9571 150.265 23.2515 147.021 23.8008C138.431 9.52003 123.048 0 105.499 0C98.0905 0 91.0666 1.69675 84.7794 4.73832C78.8002 7.62148 73.4841 11.7183 69.1354 16.7111C54.369 16.9529 40.7152 21.9066 29.5401 30.174C11.949 43.1801 0.5 64.3922 0.5 88.347Z" fill="url(#paint0_linear_1303_35561)"/>
</g>
<path opacity="0.05" d="M132.826 91.6405C131.81 92.8284 130.714 92.8085 130.061 92.6411L130.085 92.0258C130.085 92.0258 132.785 90.8113 132.716 91.0665C132.691 91.1621 132.742 91.392 132.826 91.6405Z" fill="#FF4842"/>
<path opacity="0.05" d="M140.225 92.9856C138.501 93.9662 137.49 92.8169 137.255 92.4913C137.399 92.1179 137.617 91.512 137.572 91.3393C137.507 91.0828 140.204 92.2973 140.204 92.2973L140.225 92.9856Z" fill="#FF4842"/>
<path opacity="0.05" d="M138.379 83.2019C138.379 83.2019 140.019 82.2717 140.377 82.6903C140.735 83.1089 138.379 83.2019 138.379 83.2019Z" fill="#FF4842"/>
<path opacity="0.05" d="M139.37 83.7129C139.37 83.7129 139.1 83.8458 139.695 84.0158C140.291 84.1859 139.37 83.7129 139.37 83.7129Z" fill="#FF4842"/>
<path opacity="0.05" d="M129.45 81.1552C129.394 81.1712 130.815 82.0986 132.098 81.3306C132.092 81.3306 129.77 81.0595 129.45 81.1552Z" fill="#FF4842"/>
<path opacity="0.05" d="M132.028 82.9297C132.028 82.9297 131.639 83.6818 130.842 83.7934C130.045 83.905 132.028 82.9297 132.028 82.9297Z" fill="#FF4842"/>
<path opacity="0.05" d="M137.241 84.5605C137.241 84.5605 139.11 87.4838 138.752 88.1735C138.394 88.8631 137.241 84.5605 137.241 84.5605Z" fill="#FF4842"/>
<path opacity="0.05" d="M133.554 96.185C133.554 96.3484 133.554 96.5012 133.538 96.6274C133.489 97.2187 132.011 96.9955 132.011 96.9955C130.661 97.1802 130.174 96.5424 130.014 95.9325C129.963 95.7344 129.938 95.5308 129.94 95.3266C129.939 95.2048 129.947 95.0831 129.964 94.9625V94.8416C130.255 94.7552 130.57 94.8186 130.804 95.0103C131.404 95.49 132.201 95.122 132.201 95.122C132.201 95.122 132.786 95.1698 133.011 95.3611C133.138 95.4688 133.347 95.2097 133.507 94.9625C133.516 95.122 133.531 95.4103 133.54 95.7186C133.551 95.8767 133.554 96.0362 133.554 96.185Z" fill="#FF4842"/>
<path opacity="0.05" d="M131.183 96.1505C131.183 96.1505 130.778 96.5412 130.014 95.9379C129.963 95.7398 129.938 95.5363 129.939 95.332C130.33 95.6244 131.053 96.1505 131.183 96.1505Z" fill="#FF4842"/>
<path opacity="0.05" d="M133.554 96.1845C133.487 96.2351 133.403 96.2563 133.319 96.2433C133.236 96.2302 133.162 96.1839 133.115 96.1154C133.273 95.9975 133.418 95.8639 133.547 95.7168C133.551 95.8762 133.554 96.0357 133.554 96.1845Z" fill="#FF4842"/>
<path opacity="0.05" d="M136.723 96.4585C136.723 96.6233 136.723 96.7761 136.738 96.901C136.786 97.4936 138.265 97.269 138.265 97.269C139.615 97.4551 140.101 96.8173 140.262 96.206C140.341 95.8888 140.358 95.5595 140.312 95.236V95.1151C140.02 95.0302 139.705 95.0935 139.471 95.2839C138.87 95.7636 138.075 95.3955 138.075 95.3955C138.075 95.3955 137.49 95.4446 137.264 95.636C137.137 95.7436 136.928 95.4845 136.77 95.2374C136.761 95.3968 136.745 95.6852 136.735 95.9934C136.724 96.1489 136.722 96.3083 136.723 96.4585Z" fill="#FF4842"/>
<path opacity="0.05" d="M139.095 96.4217C139.095 96.4217 139.5 96.8123 140.263 96.2091C140.314 96.0115 140.339 95.8083 140.338 95.6045C139.947 95.8955 139.223 96.4217 139.095 96.4217Z" fill="#FF4842"/>
<path opacity="0.05" d="M136.723 96.4589C136.789 96.5094 136.874 96.5307 136.957 96.5176C137.04 96.5045 137.113 96.4583 137.16 96.3898C137.003 96.2721 136.858 96.1385 136.728 95.9912C136.724 96.1493 136.722 96.3088 136.723 96.4589Z" fill="#FF4842"/>
<g opacity="0.05">
<path d="M144.842 47.2311C144.87 47.17 144.897 47.1088 144.923 47.0491C144.949 46.9893 144.958 46.956 144.973 46.9082C144.923 47.0134 144.879 47.1212 144.842 47.2311Z" fill="#FF4842"/>
</g>
<path fill-rule="evenodd" clip-rule="evenodd" d="M71.6707 124.205C71.3435 123.817 71.1935 123.314 71.2562 122.814L77.2159 74.8228L77.7101 70.8365C77.8247 69.9192 78.6127 69.2278 79.5518 69.2207L97.0085 69.1064C97.5106 69.1034 97.9904 68.9015 98.3394 68.5462C98.6885 68.1909 98.8775 67.7123 98.8637 67.2183L98.8569 67.0362C98.8397 66.538 99.0288 66.0542 99.3808 65.6958C99.7328 65.3373 100.218 65.1348 100.724 65.1348H119.068C120.098 65.1348 120.933 65.9551 120.935 66.9685C120.935 67.0511 120.93 67.1336 120.919 67.2156C120.849 67.7328 121.005 68.2551 121.349 68.6521C121.694 69.0491 122.193 69.2833 122.723 69.2965L140.34 69.7389C140.882 69.7521 141.392 69.9966 141.736 70.4088C142.08 70.8211 142.225 71.3603 142.133 71.8862L133.326 122.512L133.16 123.469C133.119 123.713 133.027 123.947 132.89 124.155L71.6707 124.205Z" fill="#005249"/>
<rect width="10.2629" height="34.6368" transform="matrix(0.826958 0.562264 -0.574576 0.818451 124.836 54.9668)" fill="white"/>
<rect width="7.24511" height="7.20483" transform="matrix(0.825354 0.564615 -0.576929 0.816794 125.447 56.3105)" fill="#FFC107"/>
<rect opacity="0.5" width="7.25522" height="7.21427" transform="matrix(0.826958 0.562264 -0.574576 0.818451 120.763 63.4023)" fill="#FFC107"/>
<rect opacity="0.3" width="7.25522" height="7.21427" transform="matrix(0.826958 0.562264 -0.574576 0.818451 115.757 70.5303)" fill="#FFC107"/>
<rect width="10.3027" height="34.3699" transform="matrix(0.961046 0.276389 -0.28466 0.958629 112.845 53.1914)" fill="white"/>
<rect width="7.28338" height="7.18584" transform="matrix(0.961046 0.276389 -0.284659 0.958629 114.145 54.1426)" fill="#FF4842"/>
<rect opacity="0.5" width="7.28338" height="7.18584" transform="matrix(0.961046 0.276389 -0.28466 0.958629 111.675 62.459)" fill="#FF4842"/>
<rect opacity="0.3" width="7.28338" height="7.18584" transform="matrix(0.961046 0.27639 -0.284659 0.958629 109.205 70.7744)" fill="#FF4842"/>
<rect width="10.3145" height="34.3296" transform="matrix(0.99688 0.0789339 -0.081484 0.996675 105.831 53.7109)" fill="white"/>
<rect width="7.29168" height="7.17741" transform="matrix(0.99688 0.0789339 -0.081484 0.996675 107.295 54.3838)" fill="#1890FF"/>
<rect opacity="0.5" width="7.29167" height="7.17741" transform="matrix(0.99688 0.0789339 -0.0814839 0.996675 106.588 63.0186)" fill="#1890FF"/>
<rect opacity="0.3" width="7.29167" height="7.17741" transform="matrix(0.99688 0.0789339 -0.0814839 0.996675 105.882 71.6553)" fill="#1890FF"/>
<rect width="10.3152" height="34.3272" transform="matrix(0.998995 -0.044816 0.0462703 0.998929 101.205 55.0869)" fill="white"/>
<rect width="7.29218" height="7.17691" transform="matrix(0.998995 -0.044816 0.0462703 0.998929 102.741 55.5713)" fill="#00AB55"/>
<rect opacity="0.5" width="7.30124" height="7.18592" transform="matrix(0.998792 -0.0491469 0.050741 0.998712 103.428 63.9521)" fill="#00AB55"/>
<rect opacity="0.3" width="7.29218" height="7.17691" transform="matrix(0.998995 -0.044816 0.0462703 0.998929 103.543 72.8818)" fill="#00AB55"/>
<path d="M105.581 100.322L96.4156 103.812L83.0203 108.908C82.514 107.977 81.7687 106.72 80.8465 105.22C77.6735 100.046 72.4239 91.9977 67.7496 84.9247C62.4838 76.9521 57.9512 70.2245 57.9512 70.2245L61.2322 69.2944L88.0336 61.6367L105.581 100.322Z" fill="#F4F6F8"/>
<path opacity="0.1" d="M105.581 100.322L96.4155 103.812C91.2956 104.861 86.0709 105.334 80.8423 105.22C77.6694 100.046 72.4198 91.9977 67.7454 84.9247L61.2334 69.2891L88.0335 61.6367L105.581 100.322Z" fill="black"/>
<path d="M112.4 98.1514C112.4 98.1514 98.1618 106.44 76.9043 104.565L59.958 63.9051L68.0794 62.5312L96.1554 57.7861L112.088 97.3608L112.4 98.1514Z" fill="#00AB55"/>
<path opacity="0.1" d="M112.082 97.3666C108.729 97.5287 104.85 97.5128 100.948 97.0544C96.7249 96.5654 92.4772 95.5582 88.8357 93.7112C85.791 92.1685 83.1878 90.4903 80.9181 88.4772C75.0137 83.2511 71.3601 75.7755 68.0791 62.537L96.1551 57.792L112.082 97.3666Z" fill="#FF4842"/>
<path d="M122.527 95.0929C122.527 95.0929 112.032 97.1153 101.349 95.8702C97.1258 95.3813 92.878 94.3741 89.2366 92.5271C86.1919 90.9844 83.59 89.3061 81.319 87.2931C74.0117 80.8233 70.1529 70.9081 66.1738 50.8849C66.1738 50.8849 83.6211 55.0293 100.874 45.9512C100.869 45.9578 106.684 81.6724 122.527 95.0929Z" fill="white"/>
<path opacity="0.3" d="M75.1992 58.2355C75.1992 58.2355 89.3871 57.4462 93.3486 54.4365L93.9494 56.3367C93.9494 56.3367 84.575 60.4067 75.1992 60.4558V58.2355Z" fill="#00AB55"/>
<path opacity="0.3" d="M75.1992 67.6162C75.1992 67.6162 88.9361 66.8761 99.3151 61.9424L99.6661 62.7317C99.6661 62.7317 91.4299 67.4634 75.1992 68.7018L75.1992 67.6162Z" fill="#00AB55"/>
<path opacity="0.3" d="M76.3047 71.2725C76.3047 71.2725 90.0416 70.5323 100.419 65.5986L100.77 66.3879C100.77 66.3879 92.5341 71.1183 76.3047 72.3581L76.3047 71.2725Z" fill="#00AB55"/>
<path opacity="0.3" d="M77.4092 74.9326C77.4092 74.9326 91.1461 74.1925 101.525 69.2588L101.875 70.0481C101.875 70.0481 93.6386 74.7798 77.4092 76.0182L77.4092 74.9326Z" fill="#00AB55"/>
<path opacity="0.3" d="M78.5146 78.5938C78.5146 78.5938 92.2516 77.8536 102.629 72.9199L102.98 73.7092C102.98 73.7092 94.744 78.4409 78.5146 79.6794L78.5146 78.5938Z" fill="#00AB55"/>
<path opacity="0.3" d="M79.6191 82.2559C79.6191 82.2559 93.356 81.5157 103.735 76.582L104.085 77.3713C104.085 77.3713 95.8485 82.1017 79.6191 83.3415V82.2559Z" fill="#00AB55"/>
<path d="M176.208 127.708C176.208 127.708 170.5 127.37 171.172 131.307C171.172 131.307 171.037 132.002 171.68 132.318C171.68 132.318 171.689 132.026 172.265 132.125C172.47 132.159 172.678 132.169 172.886 132.155C173.166 132.136 173.432 132.028 173.643 131.846C173.643 131.846 175.248 131.194 175.872 128.613C175.872 128.613 176.334 128.05 176.315 127.905L175.352 128.304C175.352 128.304 175.682 128.988 175.423 129.555C175.423 129.555 175.392 128.329 175.207 128.36C175.169 128.36 174.706 128.596 174.706 128.596C174.706 128.596 175.271 129.792 174.841 130.653C174.841 130.653 175.003 129.185 174.525 128.682L173.85 129.072C173.85 129.072 174.511 130.302 174.063 131.307C174.063 131.307 174.178 129.767 173.707 129.166L173.092 129.638C173.092 129.638 173.715 130.851 173.335 131.684C173.335 131.684 173.285 129.89 172.959 129.755C172.959 129.755 172.418 130.221 172.34 130.419C172.34 130.419 172.765 131.299 172.501 131.764C172.501 131.764 172.339 130.568 172.206 130.568C172.206 130.568 171.666 131.365 171.615 131.897C171.615 131.897 171.638 131.089 172.077 130.487C171.768 130.545 171.482 130.69 171.256 130.905C171.256 130.905 171.34 130.345 172.209 130.297C172.209 130.297 172.652 129.696 172.77 129.659C172.77 129.659 171.905 129.589 171.382 129.817C171.382 129.817 171.843 129.286 172.929 129.529L173.535 129.043C173.535 129.043 172.397 128.888 171.915 129.059C171.915 129.059 172.47 128.591 173.698 128.926L174.359 128.538C174.359 128.538 173.389 128.332 172.811 128.405C172.811 128.405 173.42 128.081 174.553 128.431L175.024 128.223C175.024 128.223 174.314 128.09 174.106 128.063C173.898 128.037 173.886 127.986 173.886 127.986C174.336 127.911 174.799 127.962 175.221 128.132C175.221 128.132 176.225 127.771 176.208 127.708Z" fill="#00AB55"/>
<ellipse opacity="0.1" cx="172.277" cy="132.661" rx="4.03979" ry="0.672356" fill="#00AB55"/>
<path d="M178.867 114.712C178.867 114.712 175.649 114.521 176.032 116.741C175.991 116.972 176.106 117.202 176.316 117.311C176.316 117.311 176.323 117.146 176.647 117.202C176.763 117.221 176.88 117.226 176.997 117.218C177.155 117.208 177.304 117.147 177.424 117.045C177.424 117.045 178.328 116.677 178.681 115.222C178.681 115.222 178.941 114.905 178.93 114.824L178.39 115.051C178.39 115.051 178.575 115.438 178.429 115.758C178.429 115.758 178.412 115.066 178.308 115.082C178.286 115.082 178.026 115.214 178.026 115.214C178.026 115.214 178.344 115.879 178.104 116.374C178.104 116.374 178.196 115.547 177.926 115.262L177.544 115.483C177.544 115.483 177.916 116.176 177.664 116.742C177.664 116.742 177.729 115.873 177.463 115.536L177.117 115.802C177.117 115.802 177.467 116.486 177.252 116.955C177.252 116.955 177.224 115.944 177.04 115.868C176.909 115.978 176.792 116.102 176.69 116.239C176.69 116.239 176.931 116.736 176.782 116.998C176.782 116.998 176.69 116.324 176.616 116.321C176.616 116.321 176.314 116.766 176.283 117.072C176.297 116.788 176.387 116.514 176.543 116.275C176.369 116.307 176.208 116.389 176.08 116.511C176.08 116.511 176.127 116.195 176.62 116.168C176.62 116.168 176.87 115.83 176.936 115.808C176.936 115.808 176.449 115.769 176.153 115.897C176.153 115.897 176.414 115.6 177.025 115.735L177.368 115.46C177.368 115.46 176.726 115.374 176.454 115.47C176.454 115.47 176.767 115.204 177.46 115.398L177.833 115.179C177.546 115.117 177.252 115.092 176.959 115.105C176.959 115.105 177.303 114.922 177.941 115.12L178.211 115.003C178.211 115.003 177.806 114.925 177.692 114.913C177.579 114.901 177.568 114.869 177.568 114.869C177.822 114.827 178.083 114.856 178.321 114.951C178.321 114.951 178.878 114.747 178.867 114.712Z" fill="#00AB55"/>
<ellipse opacity="0.1" cx="176.653" cy="117.504" rx="2.27779" ry="0.3787" fill="#00AB55"/>
<path d="M159.873 116.639C159.873 116.639 155.987 116.408 156.446 119.088C156.397 119.366 156.536 119.644 156.79 119.776C156.79 119.776 156.79 119.577 157.195 119.643C157.335 119.666 157.477 119.673 157.618 119.663C157.809 119.651 157.99 119.577 158.134 119.453C158.134 119.453 159.226 119.009 159.651 117.253C159.651 117.253 159.966 116.87 159.952 116.77L159.289 117.047C159.289 117.047 159.514 117.512 159.337 117.898C159.337 117.898 159.315 117.064 159.19 117.083C159.164 117.083 158.849 117.245 158.849 117.245C158.849 117.245 159.234 118.055 158.944 118.645C158.944 118.645 159.054 117.646 158.729 117.303L158.267 117.569C158.267 117.569 158.717 118.407 158.412 119.09C158.412 119.09 158.49 118.042 158.17 117.629L157.752 117.95C157.752 117.95 158.176 118.775 157.916 119.343C157.916 119.343 157.884 118.122 157.661 118.03C157.661 118.03 157.295 118.348 157.24 118.478C157.24 118.478 157.529 119.077 157.349 119.393C157.349 119.393 157.238 118.58 157.148 118.576C157.148 118.576 156.785 119.116 156.743 119.484C156.761 119.142 156.87 118.812 157.058 118.524C156.847 118.564 156.653 118.663 156.5 118.81C156.5 118.81 156.557 118.429 157.148 118.395C157.148 118.395 157.449 117.986 157.53 117.962C157.53 117.962 156.941 117.913 156.585 118.069C156.585 118.069 156.898 117.71 157.637 117.873L158.05 117.541C158.05 117.541 157.276 117.437 156.947 117.552C156.947 117.552 157.325 117.234 158.162 117.467L158.612 117.201C158.612 117.201 157.951 117.061 157.557 117.112C157.557 117.112 157.973 116.891 158.743 117.13L159.064 116.988C159.064 116.988 158.581 116.895 158.439 116.881C158.297 116.866 158.29 116.827 158.29 116.827C158.597 116.776 158.911 116.81 159.199 116.926C159.199 116.926 159.885 116.68 159.873 116.639Z" fill="#00AB55"/>
<ellipse opacity="0.1" cx="157.197" cy="120.01" rx="2.75036" ry="0.457092" fill="#00AB55"/>
<rect width="22.7133" height="41.1756" rx="5" transform="matrix(0.313683 -0.949528 0.952437 0.304734 126.108 55.5615)" fill="white"/>
<g opacity="0.2">
<ellipse cx="137.616" cy="46.0029" rx="4.23422" ry="4.16701" fill="#00AB55"/>
</g>
<g opacity="0.2">
<rect width="1.14318" height="18.42" transform="matrix(0.313683 -0.949528 0.952437 0.304734 147.747 45.2539)" fill="#00AB55"/>
</g>
<g opacity="0.2">
<rect width="1.14318" height="9.38323" transform="matrix(0.313683 -0.949528 0.952437 0.304734 146.832 48.0215)" fill="#00AB55"/>
</g>
<g opacity="0.2">
<rect width="1.14318" height="15.1763" transform="matrix(0.313683 -0.949528 0.952437 0.304734 145.917 50.79)" fill="#00AB55"/>
</g>
<g opacity="0.2">
<rect width="1.14318" height="18.42" transform="matrix(0.313682 -0.949528 0.952437 0.304735 145.003 53.5586)" fill="#00AB55"/>
</g>
<g opacity="0.5">
<rect width="2.21051" height="5.0974" transform="matrix(0.313682 -0.949528 0.952437 0.304735 156.036 62.6279)" fill="#00AB55"/>
</g>
<rect width="22.4617" height="35.2001" rx="4" transform="matrix(0.546885 -0.837207 0.845079 0.534642 122.51 94.9434)" fill="white"/>
<rect width="6.35443" height="1.50536" transform="matrix(0.542388 -0.840128 0.847895 0.530164 126.918 93.6309)" fill="#DFE3E8"/>
<rect width="13.9557" height="1.38036" transform="matrix(0.542388 -0.840128 0.847896 0.530163 130.998 94.7129)" fill="#DFE3E8"/>
<rect width="13.9557" height="1.38036" transform="matrix(0.542388 -0.840128 0.847896 0.530163 133.498 96.2744)" fill="#DFE3E8"/>
<rect width="13.9557" height="1.38036" transform="matrix(0.542388 -0.840128 0.847896 0.530163 135.997 97.8389)" fill="#DFE3E8"/>
<rect width="13.9372" height="1.37832" transform="matrix(0.546885 -0.837207 0.845079 0.534642 138.584 100.105)" fill="#DFE3E8"/>
<rect width="13.9557" height="1.38036" transform="matrix(0.542388 -0.840128 0.847896 0.530163 140.997 100.965)" fill="#F4F6F8"/>
<rect width="13.9557" height="1.38036" transform="matrix(0.542388 -0.840128 0.847896 0.530163 143.497 102.526)" fill="#F4F6F8"/>
<rect width="3.61375" height="3.63839" transform="matrix(0.542387 -0.840129 0.847895 0.530164 153.994 95.8662)" fill="#DFE3E8"/>
<path d="M122.109 75.005L101.44 75.2242C100.666 75.2322 100.043 75.8513 100.043 76.6128V78.2936C100.042 79.0475 99.4312 79.6635 98.6654 79.6822L83.7512 80.0343C83.1007 80.0504 82.5235 79.6267 82.3537 79.0085L81.6529 76.4746C81.4849 75.8633 80.9178 75.4413 80.2744 75.4488L60.3522 75.66C59.9391 75.664 59.5486 75.846 59.2836 76.1579C59.0186 76.4698 58.9058 76.8803 58.975 77.2811L66.9898 123.703C67.1047 124.369 67.6898 124.857 68.3765 124.86L131.315 125.126C131.736 125.127 132.137 124.943 132.406 124.624C132.675 124.305 132.786 123.883 132.707 123.476L123.509 76.1331C123.381 75.4732 122.791 74.9982 122.109 75.005Z" fill="url(#paint1_linear_1303_35561)"/>
<ellipse opacity="0.1" cx="54.51" cy="114.961" rx="2.18867" ry="0.296318" fill="#00AB55"/>
<ellipse opacity="0.1" cx="46.1262" cy="115.797" rx="2.18867" ry="0.296314" fill="#00AB55"/>
<ellipse opacity="0.1" cx="49.4812" cy="118.18" rx="1.55543" ry="0.209946" fill="#00AB55"/>
<ellipse opacity="0.1" cx="40.781" cy="117.97" rx="1.55543" ry="0.209946" fill="#00AB55"/>
<path d="M46.0791 115.732C46.0791 115.732 49.1481 105.83 45.5985 101.864C42.9426 98.8966 39.9276 99.2514 38.5774 99.6181C37.8709 99.8039 37.2826 100.285 36.968 100.935C36.4954 101.937 36.5805 103.563 39.9128 105.462C45.4905 108.64 45.8375 113 45.8375 113L46.0791 115.732Z" fill="#00AB55"/>
<path d="M39.0596 101.023C39.0596 101.023 48.1059 103.814 46.0806 115.733" stroke="#005249" stroke-width="0.5" stroke-linecap="round"/>
<path d="M44.3443 102.021C44.3443 102.021 43.0981 102.847 43.495 104.089" stroke="#005249" stroke-width="0.5" stroke-linecap="round"/>
<path d="M39.9668 102.757C39.9668 102.757 40.7283 101.995 41.6559 102.416" stroke="#005249" stroke-width="0.5" stroke-linecap="round"/>
<path d="M43.543 106.592C43.543 106.592 44.881 105.927 45.2267 106.761" stroke="#005249" stroke-width="0.5" stroke-linecap="round"/>
<path d="M46.8532 107.983C46.8532 107.983 45.8486 107.905 45.8311 108.382" stroke="#005249" stroke-width="0.5" stroke-linecap="round"/>
<path d="M46.2034 115.811C46.2034 115.811 42.6078 108.614 41.6208 108.768C41.1523 108.844 40.9363 109.3 40.8377 109.754C40.7165 110.344 40.7849 110.956 41.0335 111.505C41.5439 112.661 42.9143 114.847 46.2034 115.811Z" fill="#00AB55"/>
<path d="M41.6475 110.137C41.6475 110.137 45.4199 115.521 46.149 115.757" stroke="#005249" stroke-width="0.5" stroke-linecap="round"/>
<path d="M41.3008 110.979H42.1811" stroke="#005249" stroke-width="0.5" stroke-linecap="round"/>
<path d="M42.3555 112.947L43.7367 113.006" stroke="#005249" stroke-width="0.5" stroke-linecap="round"/>
<path d="M43.1967 111.371L43.0469 112.079" stroke="#005249" stroke-width="0.5" stroke-linecap="round"/>
<path d="M44.664 113.525L44.637 114.169" stroke="#005249" stroke-width="0.5" stroke-linecap="round"/>
<path d="M46.0967 115.811C46.0967 115.811 49.6909 108.614 50.6779 108.768C51.1478 108.844 51.3638 109.3 51.461 109.754C51.5822 110.344 51.5138 110.956 51.2652 111.505C50.7549 112.661 49.3831 114.847 46.0967 115.811Z" fill="#00AB55"/>
<path d="M50.6523 110.137C50.6523 110.137 46.8718 115.521 46.1494 115.757" stroke="#005249" stroke-width="0.5" stroke-linecap="round"/>
<path d="M50.9995 110.979H50.1191" stroke="#005249" stroke-width="0.5" stroke-linecap="round"/>
<path d="M49.9447 112.947L48.5635 113.006" stroke="#005249" stroke-width="0.5" stroke-linecap="round"/>
<path d="M49.1035 111.371L49.2534 112.079" stroke="#005249" stroke-width="0.5" stroke-linecap="round"/>
<path d="M47.636 113.525L47.663 114.169" stroke="#005249" stroke-width="0.5" stroke-linecap="round"/>
<path d="M39.9235 117.491C39.8257 117.413 39.7545 117.307 39.7196 117.187C39.6852 117.063 39.7454 116.933 39.8627 116.877C39.9977 116.828 40.1328 116.917 40.2408 117.01C40.3488 117.103 40.4717 117.202 40.6067 117.179C40.4609 117.049 40.3953 116.853 40.4339 116.664C40.4394 116.625 40.4558 116.589 40.4811 116.559C40.554 116.481 40.6863 116.515 40.7741 116.576C41.0441 116.767 41.1292 117.138 41.1306 117.473C41.1441 117.35 41.1441 117.226 41.1306 117.103C41.1233 116.978 41.18 116.857 41.2818 116.78C41.3475 116.745 41.4216 116.728 41.4965 116.73C41.6219 116.712 41.7491 116.748 41.8462 116.828C41.9407 116.955 41.9352 117.129 41.8327 117.249C41.7292 117.364 41.6069 117.46 41.4708 117.534C41.3675 117.595 41.2794 117.678 41.2129 117.777C41.2048 117.79 41.1984 117.805 41.194 117.82H40.4082C40.2323 117.732 40.0692 117.622 39.9235 117.491Z" fill="#00AB55"/>
<path d="M53.6209 114.593C53.5229 114.515 53.4516 114.409 53.417 114.29C53.3824 114.167 53.442 114.036 53.5588 113.98C53.6938 113.931 53.8288 114.02 53.9368 114.113C54.0449 114.206 54.1664 114.307 54.3055 114.287C54.1597 114.158 54.0935 113.963 54.1313 113.773C54.1373 113.734 54.1541 113.698 54.1799 113.668C54.2528 113.591 54.3851 113.624 54.4729 113.684C54.7497 113.877 54.828 114.247 54.8293 114.582C54.8428 114.459 54.8428 114.335 54.8293 114.211C54.8171 114.087 54.8676 113.965 54.9643 113.885C55.0304 113.85 55.1043 113.833 55.179 113.835C55.3043 113.818 55.4311 113.853 55.5287 113.932C55.6236 114.06 55.6175 114.234 55.5139 114.355C55.4112 114.469 55.2893 114.566 55.1534 114.639C55.0501 114.7 54.9619 114.783 54.8955 114.881C54.8876 114.895 54.8812 114.91 54.8766 114.925H54.1083C53.9311 114.837 53.7671 114.725 53.6209 114.593Z" fill="#00AB55"/>
<path d="M49.0567 117.492C48.9589 117.413 48.8874 117.307 48.8514 117.187C48.817 117.064 48.8772 116.933 48.9946 116.878C49.1296 116.828 49.2646 116.917 49.3726 117.01C49.4806 117.104 49.6008 117.204 49.7412 117.186C49.5957 117.056 49.5296 116.86 49.567 116.67C49.573 116.632 49.5899 116.595 49.6156 116.565C49.6886 116.488 49.8209 116.522 49.9086 116.583C50.1854 116.774 50.2624 117.145 50.2651 117.48C50.2786 117.357 50.2786 117.233 50.2651 117.11C50.2545 116.985 50.3076 116.862 50.4069 116.783C50.4725 116.748 50.5467 116.73 50.6215 116.733C50.747 116.715 50.8741 116.751 50.9712 116.831C51.0659 116.958 51.0598 117.132 50.9564 117.252C50.8534 117.367 50.7315 117.463 50.5959 117.537C50.4926 117.598 50.4045 117.681 50.338 117.78C50.3298 117.793 50.3235 117.807 50.3191 117.822H49.536C49.362 117.734 49.2008 117.622 49.0567 117.492Z" fill="#00AB55"/>
<ellipse opacity="0.1" cx="38.6461" cy="38.6681" rx="2.92048" ry="2.87412" fill="#00AB55"/>
<ellipse opacity="0.1" cx="179.079" cy="61.6358" rx="2.92048" ry="2.87412" fill="#00AB55"/>
<ellipse opacity="0.1" cx="126.581" cy="29.5411" rx="2.92048" ry="2.87412" fill="#00AB55"/>
<ellipse opacity="0.1" cx="44.4872" cy="54.5238" rx="4.89447" ry="4.81678" fill="#00AB55"/>
<path fill-rule="evenodd" clip-rule="evenodd" d="M93.5459 93.2939C89.9442 93.2939 87.0244 96.1674 87.0244 99.7119C87.0244 103.256 89.9442 106.13 93.5459 106.13C97.1476 106.13 100.067 103.256 100.067 99.7119C100.067 96.1674 97.1476 93.2939 93.5459 93.2939V93.2939Z" fill="#007B55"/>
<path opacity="0.72" fill-rule="evenodd" clip-rule="evenodd" d="M93.5451 94.04C96.7278 94.04 99.3079 96.5792 99.3079 99.7114C99.3079 102.844 96.7278 105.383 93.5451 105.383C90.3623 105.383 87.7822 102.844 87.7822 99.7114C87.785 96.5803 90.3635 94.0428 93.5451 94.04Z" fill="#00AB55"/>
<path fill-rule="evenodd" clip-rule="evenodd" d="M90.8489 100.18L90.5336 99.8771C90.4654 99.8158 90.4268 99.7302 90.4268 99.6405C90.4268 99.5508 90.4654 99.4652 90.5336 99.4039L93.3004 96.7442C93.3643 96.6787 93.4535 96.6416 93.5468 96.6416C93.6402 96.6416 93.7294 96.6787 93.7932 96.7442L96.5601 99.4015C96.6269 99.4635 96.6647 99.5489 96.6647 99.6381C96.6647 99.7274 96.6269 99.8128 96.5601 99.8747L96.2447 100.178C96.1802 100.242 96.0912 100.278 95.9983 100.278C95.9054 100.278 95.8165 100.242 95.7519 100.178L94.116 98.5212V102.452C94.1166 102.539 94.0811 102.622 94.0173 102.684C93.9534 102.746 93.8666 102.781 93.776 102.781H93.3202C93.131 102.781 92.9777 102.633 92.9777 102.452V98.526L91.3417 100.182C91.2768 100.246 91.1877 100.282 91.0948 100.282C91.0019 100.281 90.9132 100.245 90.8489 100.18Z" fill="#007B55"/>
<defs>
<linearGradient id="paint0_linear_1303_35561" x1="148.995" y1="188.459" x2="226.632" y2="10.6558" gradientUnits="userSpaceOnUse">
<stop stop-color="#00AB55"/>
<stop offset="1" stop-color="#00AB55" stop-opacity="0.01"/>
</linearGradient>
<linearGradient id="paint1_linear_1303_35561" x1="81.1711" y1="60.9957" x2="59.9163" y2="124.769" gradientUnits="userSpaceOnUse">
<stop stop-color="#00AB55"/>
<stop offset="1" stop-color="#007B55"/>
</linearGradient>
</defs>
</svg>
