<svg width="104" height="120" viewBox="0 0 104 120" fill="none" xmlns="http://www.w3.org/2000/svg">
<path opacity="0.48062" fill-rule="evenodd" clip-rule="evenodd" d="M55.676 119.471C55.3307 119.564 54.9754 119.359 54.8824 119.014C54.7894 118.669 54.9938 118.313 55.3391 118.22C55.8431 118.084 56.3683 117.943 57.0061 117.772C57.3515 117.679 57.7067 117.884 57.7994 118.229C57.8922 118.574 57.6875 118.93 57.3421 119.022C56.7046 119.194 56.1797 119.335 55.676 119.471ZM62.3462 117.676C62.0011 117.769 61.6455 117.565 61.5521 117.22C61.4587 116.875 61.6629 116.519 62.008 116.426C62.5893 116.269 63.1401 116.119 63.6729 115.974C64.0179 115.88 64.3738 116.083 64.4679 116.428C64.5619 116.773 64.3585 117.129 64.0135 117.223C63.4798 117.369 62.9282 117.518 62.3462 117.676ZM69.0113 115.838C68.6672 115.935 68.3094 115.735 68.2121 115.391C68.1147 115.047 68.3148 114.689 68.6589 114.592C69.222 114.432 69.7737 114.275 70.316 114.119C70.6597 114.02 71.0184 114.219 71.1173 114.562C71.2162 114.906 71.0177 115.265 70.6741 115.364C70.1299 115.52 69.5763 115.678 69.0113 115.838ZM75.6519 113.887C75.31 113.992 74.9479 113.8 74.8431 113.458C74.7383 113.116 74.9304 112.754 75.2723 112.649C75.8275 112.479 76.3753 112.309 76.9166 112.139C77.2578 112.031 77.6212 112.221 77.7285 112.562C77.8357 112.903 77.6461 113.267 77.305 113.374C76.7608 113.545 76.21 113.716 75.6519 113.887ZM82.2473 111.754C81.909 111.87 81.5409 111.689 81.425 111.351C81.3092 111.013 81.4896 110.645 81.8279 110.529C82.375 110.341 82.9165 110.153 83.4527 109.964C83.7899 109.845 84.1598 110.021 84.2789 110.359C84.398 110.696 84.2212 111.066 83.884 111.185C83.3438 111.376 82.7984 111.565 82.2473 111.754ZM88.7601 109.374C88.427 109.504 88.0515 109.34 87.9213 109.007C87.7912 108.674 87.9557 108.298 88.2887 108.168C88.7475 107.989 89.2027 107.808 89.6517 107.627C89.7677 107.58 89.7677 107.58 89.8826 107.532C90.2132 107.396 90.5917 107.554 90.7279 107.884C90.8641 108.215 90.7064 108.594 90.3758 108.73C90.2591 108.778 90.2591 108.778 90.1385 108.827C89.6824 109.011 89.223 109.193 88.7601 109.374ZM95.1307 106.488C94.8184 106.662 94.424 106.55 94.2498 106.238C94.0756 105.926 94.1875 105.531 94.4998 105.357C95.0044 105.076 95.4851 104.788 95.9442 104.491C96.2445 104.297 96.6453 104.383 96.8395 104.683C97.0337 104.983 96.9477 105.384 96.6474 105.578C96.164 105.891 95.6592 106.193 95.1307 106.488ZM100.732 102.049C100.516 102.334 100.109 102.389 99.8247 102.173C99.54 101.956 99.4847 101.55 99.701 101.265C100.033 100.829 100.305 100.374 100.506 99.9141C100.65 99.5864 101.031 99.4369 101.359 99.5801C101.687 99.7233 101.836 100.105 101.693 100.433C101.449 100.99 101.124 101.534 100.732 102.049ZM101.066 94.8345C101.261 95.1342 101.176 95.5353 100.877 95.7303C100.577 95.9253 100.176 95.8404 99.9809 95.5407C99.6995 95.1081 99.3641 94.6939 98.9758 94.2951C98.7263 94.0389 98.7318 93.629 98.988 93.3795C99.2441 93.1301 99.6541 93.1355 99.9036 93.3917C100.349 93.8492 100.737 94.3288 101.066 94.8345ZM95.4729 90.2781C95.7894 90.4446 95.911 90.8361 95.7446 91.1526C95.5781 91.4691 95.1866 91.5907 94.8701 91.4242C94.7778 91.3757 94.6839 91.3268 94.6015 91.2842C94.1897 91.0839 93.7742 90.8953 93.3502 90.716C93.0209 90.5767 92.8668 90.1968 93.0061 89.8675C93.1454 89.5381 93.5254 89.3841 93.8547 89.5234C94.2994 89.7115 94.7356 89.9094 95.1811 90.1263C95.28 90.1772 95.3772 90.2278 95.4729 90.2781ZM88.8178 87.892C89.1656 87.9749 89.3804 88.3241 89.2974 88.672C89.2145 89.0198 88.8653 89.2345 88.5174 89.1516C87.9758 89.0225 87.4227 88.9039 86.8569 88.7951C86.5058 88.7277 86.2758 88.3883 86.3433 88.0371C86.4108 87.6859 86.7501 87.456 87.1013 87.5235C87.6855 87.6357 88.2572 87.7583 88.8178 87.892ZM81.9024 86.8098C82.2586 86.8424 82.5208 87.1575 82.4882 87.5136C82.4556 87.8697 82.1405 88.1319 81.7844 88.0994C81.2325 88.0488 80.6654 88.0036 80.0775 87.9628C79.7207 87.938 79.4516 87.6287 79.4764 87.272C79.5012 86.9152 79.8105 86.6461 80.1672 86.6709C80.7643 86.7124 81.3408 86.7584 81.9024 86.8098ZM74.946 86.4196C75.3034 86.432 75.5831 86.7318 75.5707 87.0891C75.5583 87.4465 75.2586 87.7262 74.9012 87.7138C74.644 87.7049 74.3798 87.696 74.0481 87.6848C73.7743 87.6806 73.4983 87.6771 73.2196 87.6744C72.862 87.6708 72.575 87.3781 72.5785 87.0205C72.5821 86.6629 72.8748 86.3759 73.2324 86.3795C73.5134 86.3823 73.7917 86.3857 74.0796 86.3902C74.4235 86.4017 74.6882 86.4107 74.946 86.4196ZM68.0366 86.398C68.3942 86.3927 68.6883 86.6784 68.6935 87.0359C68.6987 87.3935 68.4131 87.6876 68.0555 87.6928C67.5031 87.7008 66.9326 87.7107 66.3324 87.7224C65.9749 87.7294 65.6794 87.4452 65.6724 87.0877C65.6654 86.7302 65.9496 86.4347 66.3071 86.4277C66.9094 86.4159 67.482 86.406 68.0366 86.398ZM61.1247 86.5482C61.4822 86.5395 61.7792 86.8221 61.7879 87.1796C61.7967 87.5371 61.514 87.834 61.1565 87.8428C60.4802 87.8594 59.946 87.8722 59.4295 87.8841C59.072 87.8923 58.7755 87.6092 58.7673 87.2517C58.7591 86.8942 59.0422 86.5977 59.3997 86.5895C59.9155 86.5776 60.4491 86.5648 61.1247 86.5482ZM54.2305 86.6774C54.588 86.6743 54.8804 86.9617 54.8835 87.3193C54.8865 87.6769 54.5991 87.9693 54.2416 87.9723C53.8797 87.9754 53.5242 87.9777 53.1761 87.979C52.9594 87.9806 52.7406 87.983 52.5181 87.986C52.1605 87.991 51.8667 87.7051 51.8617 87.3475C51.8568 86.99 52.1427 86.6961 52.5002 86.6912C52.7254 86.6881 52.9469 86.6857 53.1688 86.684C53.5171 86.6827 53.8706 86.6805 54.2305 86.6774ZM47.3144 86.8251C47.6719 86.8163 47.9689 87.0989 47.9777 87.4564C47.9865 87.8139 47.7039 88.1108 47.3464 88.1197C46.7123 88.1353 46.1501 88.1456 45.6099 88.1505C45.2523 88.1538 44.9598 87.8665 44.9565 87.509C44.9533 87.1514 45.2405 86.8589 45.5981 86.8556C46.1309 86.8507 46.6866 86.8406 47.3144 86.8251ZM40.4763 86.6866C40.8327 86.7165 41.0973 87.0296 41.0674 87.3859C41.0375 87.7423 40.7244 88.0069 40.3681 87.977C39.7889 87.9285 39.2096 87.8691 38.6262 87.798C38.2712 87.7548 38.0185 87.432 38.0617 87.077C38.1049 86.7221 38.4277 86.4693 38.7827 86.5126C39.35 86.5816 39.9131 86.6394 40.4763 86.6866ZM33.7521 85.6253C34.1007 85.7048 34.3189 86.0519 34.2394 86.4005C34.1599 86.7492 33.8129 86.9674 33.4642 86.8879C32.9363 86.7675 32.3999 86.6374 31.854 86.4972C31.8072 86.4852 31.8072 86.4852 31.7626 86.4734C31.4169 86.3818 31.2109 86.0274 31.3025 85.6817C31.3941 85.336 31.7486 85.13 32.0942 85.2216C32.134 85.2321 32.134 85.2321 32.1761 85.243C32.7107 85.3802 33.2356 85.5076 33.7521 85.6253ZM27.7199 82.9845C27.9986 83.2085 28.0429 83.6161 27.8188 83.8948C27.5948 84.1735 27.1872 84.2178 26.9085 83.9937C26.4363 83.614 25.99 83.2036 25.5742 82.7665C25.3277 82.5074 25.338 82.0976 25.5971 81.8511C25.8562 81.6047 26.266 81.6149 26.5125 81.874C26.8885 82.2693 27.2924 82.6408 27.7199 82.9845ZM23.9563 77.6521C24.0662 77.9924 23.8794 78.3574 23.5391 78.4672C23.1988 78.5771 22.8339 78.3903 22.724 78.05C22.5341 77.4621 22.3949 76.8643 22.3084 76.2613C22.2576 75.9073 22.5034 75.5792 22.8574 75.5285C23.2114 75.4777 23.5395 75.7235 23.5902 76.0775C23.6662 76.6072 23.7888 77.1334 23.9563 77.6521ZM24.126 71.3189C24.0067 71.656 23.6368 71.8326 23.2997 71.7134C22.9625 71.5942 22.7859 71.2242 22.9051 70.8871C23.1037 70.3256 23.3429 69.7715 23.6215 69.2238C23.7836 68.9051 24.1734 68.7782 24.4921 68.9403C24.8109 69.1024 24.9378 69.4922 24.7757 69.811C24.5222 70.3092 24.3054 70.8115 24.126 71.3189ZM27.7086 65.7407C27.4651 66.0026 27.0554 66.0174 26.7935 65.7739C26.5317 65.5304 26.5168 65.1207 26.7603 64.8588C27.15 64.4398 27.563 64.0226 28.0009 63.6038C28.2594 63.3567 28.6693 63.3659 28.9164 63.6243C29.1635 63.8828 29.1543 64.2926 28.8959 64.5398C28.4757 64.9415 28.0805 65.3409 27.7086 65.7407Z" fill="#00AB55"/>
<path d="M102.877 0.247122C103.533 0.411854 103.686 1.2061 103.518 1.77678C103.142 3.45352 102.488 5.05377 101.973 6.69227C94.8069 29.0635 87.6404 51.4347 80.474 73.8059C80.3151 74.6884 79.388 75.3444 78.5139 75.1532C69.3991 67.702 60.2608 60.2714 51.1283 52.8408C46.9903 57.1739 42.9141 61.5834 38.423 65.5546C37.2752 66.4959 36.1332 67.4902 34.7706 68.1021C34.4056 68.2139 33.7523 68.4286 33.5845 67.9344C33.5345 67.0401 33.7611 66.1606 33.8523 65.2781C34.9501 56.7179 36.0626 48.1577 37.231 39.6063C25.4733 37.8678 13.7186 36.1323 1.9609 34.4055C1.33402 34.2996 0.501122 34.1849 0.274503 33.4818C0.150893 32.5935 1.02205 32.0522 1.75194 31.8228C6.55802 30.449 11.2905 28.837 16.0642 27.3544C44.2297 18.4088 72.3981 9.46918 100.564 0.523636C101.308 0.308896 102.097 0.0529729 102.877 0.247122Z" fill="url(#paint0_linear_1235_78186)"/>
<path fill-rule="evenodd" clip-rule="evenodd" d="M56.2745 28.9807C59.6621 26.9755 63.0497 24.9704 66.4448 22.9801C76.5102 17.0439 86.5756 11.1047 96.641 5.16553C92.0714 8.8414 87.4472 12.4526 82.8228 16.0639C80.0014 18.2673 77.1799 20.4707 74.3706 22.6889C71.2595 25.1282 68.1487 27.5677 65.038 30.0073C58.8113 34.8905 52.5846 39.7736 46.3552 44.6542C46.0829 44.8725 45.7995 45.0785 45.5159 45.2845C44.9476 45.6976 44.3788 46.1109 43.8977 46.6251C43.3146 47.2642 43.0225 48.0755 42.733 48.8799C42.6441 49.1269 42.5554 49.3733 42.4586 49.6138C41.7559 51.4077 41.0029 53.1829 40.2498 54.9586C39.8075 56.0015 39.3651 57.0445 38.9327 58.0916C37.8085 60.795 36.6165 63.4866 35.0508 65.9723C35.6815 60.7589 36.3733 55.5542 37.0651 50.3497C37.5096 47.0056 37.9541 43.6616 38.3824 40.3153C38.3971 40.2353 38.4072 40.151 38.4174 40.0654C38.4585 39.7229 38.5018 39.3622 38.8503 39.1974C44.6842 35.841 50.4795 32.4108 56.2745 28.9807ZM36.4399 66.0429C39.5272 60.0655 42.1966 53.8821 44.7689 47.6694C45.2182 48.0369 45.6667 48.4056 46.1151 48.7744C47.4938 49.9081 48.8727 51.042 50.2784 52.1407C45.9844 57.065 41.3991 61.7775 36.4399 66.0429Z" fill="#007B55"/>
<defs>
<linearGradient id="paint0_linear_1235_78186" x1="12.627" y1="20.3023" x2="14.0248" y2="76.882" gradientUnits="userSpaceOnUse">
<stop stop-color="#00AB55"/>
<stop offset="1" stop-color="#007B55"/>
</linearGradient>
</defs>
</svg>
