<svg width="25" height="24" viewBox="0 0 25 24" fill="none" xmlns="http://www.w3.org/2000/svg">
<path d="M8.7473 20C11.7347 20.1 14.6356 18.9876 16.7902 16.9159C18.9448 14.8441 20.1701 11.9891 20.1873 9.00005C20.865 8.16146 21.3681 7.19588 21.6673 6.16005C21.7129 5.99287 21.6562 5.81449 21.5223 5.70441C21.3885 5.59433 21.2025 5.57305 21.0473 5.65005C20.3203 5.99998 19.4512 5.84707 18.8873 5.27005C18.1781 4.49338 17.1845 4.03701 16.1333 4.00498C15.082 3.97295 14.0625 4.36799 13.3073 5.10005C12.2663 6.10824 11.8298 7.58832 12.1573 9.00005C8.8073 9.20005 6.5073 7.61005 4.6673 5.43005C4.55435 5.30213 4.37645 5.25312 4.21393 5.30512C4.0514 5.35713 3.93501 5.50032 3.9173 5.67005C3.19942 9.65221 5.03417 13.6607 8.5173 15.72C7.37694 17.0279 5.77551 17.8447 4.0473 18C3.85748 18.0315 3.70868 18.1802 3.67704 18.37C3.64541 18.5598 3.73795 18.7487 3.9073 18.84C5.41082 19.5914 7.06653 19.9882 8.7473 20Z" fill="#00AAEC"/>
</svg>
